# xmcd CD database file
#
# Track frame offsets:
#	150
#	19345
#	34298
#	52578
#	66071
#	83514
#	100206
#	128808
#	148638
#	161872
#
# Disc length: 2444 seconds
#
# Revision: 0
# Processed by: cddbd v1.5.2PL0 Copyright (c) Steve Scherf et al.
# Submitted via: CDex 1.50Beta6
#
DISCID=7e098a0a
DTITLE=John Steed - Not For The Mansions
DYEAR=2004
DGENRE=Country
TTITLE0=Not For The Mansions
TTITLE1=Ever Since Jesus Came My Way
TTITLE2=Tell Me About The Cross
TTITLE3=Heart To Heart
TTITLE4=We Were Meant To Be
TTITLE5=Day I Died
TTITLE6=I Can Almost Smell The Lily
TTITLE7=Devil Get Off My Back
TTITLE8=Jesus Is The Man Who Can
TTITLE9=Almost Persuaded
EXTD=YEAR: 2004
EXTT0=
EXTT1=
EXTT2=
EXTT3=
EXTT4=
EXTT5=
EXTT6=
EXTT7=
EXTT8=
EXTT9=
PLAYORDER=
